# xmcd CD database file
#
# Track frame offsets:
#	150
#	19255
#	26853
#	44495
#	57038
#	64260
#	96563
#	109840
#	127345
#	139208
#	161495
#	168313
#	180610
#	197855
#	209905
#	219863
#	271040
#
# Disc length: 3783 seconds
#
# Revision: 0
# Processed by: cddbd v1.5.2PL0 Copyright (c) Steve Scherf et al.
# Submitted via: CDex 1.70beta2
#
DISCID=0b0ec511
DTITLE=collegium juvenum Stuttgart - diverse
DYEAR=1992
DGENRE=Geistliche Chormusik acapella
TTITLE0=Kurt Thomas: Jauchzet Gott, alle Lande
TTITLE1=Orlando di Lasso: Jubilate Deo
TTITLE2=Antonio Lotti: Laudate Dominum
TTITLE3=Josqin Desprez: Tu pauperum refugium
TTITLE4=Orlando di Lasso: Exaudi, Deus, orationem meam
TTITLE5=Heinrich Schütz: Deutsches Magnificat
TTITLE6=Heinrich Schütz: Also hat Gott die Welt geliebt
TTITLE7=Joseph Gabriel Rheinberger: Messe in F-Dur Kyrie
TTITLE8=Joseph Gabriel Rheinberger: Messe in F-Dur Gloria in excelsis Deo
TTITLE9=Joseph Gabriel Rheinberger: Messe in F-Dur Credo in unum Deum
TTITLE10=Joseph Gabriel Rheinberger: Messe in F-Dur Sanctus
TTITLE11=Joseph Gabriel Rheinberger: Messe in F-Dur Benedictus
TTITLE12=Joseph Gabriel Rheinberger: Messe in F-Dur Agnus Dei
TTITLE13=Johann Christian Heinrich Rinck: Vater unser
TTITLE14=Max Reger: Die Nacht ist kommen
TTITLE15=Felix Mendelsohn-Bartholdy: Adspice Domine
TTITLE16=Melchior Vulpius: Hinunter ist der Sonne Schein
EXTD=YEAR: 1992
EXTT0=
EXTT1=
EXTT2=
EXTT3=
EXTT4=
EXTT5=
EXTT6=
EXTT7=
EXTT8=
EXTT9=
EXTT10=
EXTT11=
EXTT12=
EXTT13=
EXTT14=
EXTT15=
EXTT16=
PLAYORDER=
